# Blender 5.2.0 LTS
# www.blender.org
mtllib cube.mtl
o Cube
v 0.750000 0.750000 -1.000000
v 0.750000 1.000000 -0.750000
v 1.000000 0.750000 -0.750000
v 0.750000 0.831128 -0.993303
v 0.750000 0.906436 -0.963658
v 0.831128 0.750000 -0.993303
v 0.834149 0.834565 -0.984899
v 0.832020 0.905798 -0.955374
v 0.906436 0.750000 -0.963658
v 0.906005 0.832247 -0.955174
v 0.895478 0.895478 -0.932926
v 0.831128 0.993303 -0.750000
v 0.906436 0.963658 -0.750000
v 0.750000 0.993303 -0.831128
v 0.834565 0.984899 -0.834149
v 0.905798 0.955374 -0.832020
v 0.750000 0.963658 -0.906436
v 0.832247 0.955174 -0.906005
v 0.895478 0.932926 -0.895478
v 0.993303 0.750000 -0.831128
v 0.963658 0.750000 -0.906436
v 0.993303 0.831128 -0.750000
v 0.984898 0.834149 -0.834565
v 0.955374 0.832020 -0.905798
v 0.963658 0.906436 -0.750000
v 0.955174 0.906005 -0.832247
v 0.932926 0.895478 -0.895478
v 0.750000 -1.000000 -0.750000
v 0.750000 -0.750000 -1.000000
v 1.000000 -0.750000 -0.750000
v 0.750000 -0.993303 -0.831128
v 0.750000 -0.963658 -0.906436
v 0.831128 -0.993303 -0.750000
v 0.834149 -0.984899 -0.834565
v 0.832020 -0.955374 -0.905798
v 0.906436 -0.963658 -0.750000
v 0.906005 -0.955174 -0.832247
v 0.895478 -0.932926 -0.895478
v 0.831128 -0.750000 -0.993303
v 0.906436 -0.750000 -0.963658
v 0.750000 -0.831128 -0.993303
v 0.834565 -0.834149 -0.984899
v 0.905798 -0.832020 -0.955374
v 0.750000 -0.906436 -0.963658
v 0.832247 -0.906005 -0.955174
v 0.895478 -0.895478 -0.932926
v 0.993303 -0.831128 -0.750000
v 0.963658 -0.906436 -0.750000
v 0.993303 -0.750000 -0.831128
v 0.984898 -0.834565 -0.834149
v 0.955374 -0.905798 -0.832020
v 0.963658 -0.750000 -0.906436
v 0.955174 -0.832247 -0.906005
v 0.932926 -0.895478 -0.895478
v 1.000000 0.750000 0.750000
v 0.750000 1.000000 0.750000
v 0.750000 0.750000 1.000000
v 0.993303 0.831128 0.750000
v 0.963658 0.906436 0.750000
v 0.993303 0.750000 0.831128
v 0.984899 0.834565 0.834149
v 0.955374 0.905798 0.832020
v 0.963658 0.750000 0.906436
v 0.955174 0.832247 0.906005
v 0.932926 0.895478 0.895478
v 0.750000 0.993303 0.831128
v 0.750000 0.963658 0.906436
v 0.831128 0.993303 0.750000
v 0.834149 0.984899 0.834565
v 0.832020 0.955374 0.905798
v 0.906436 0.963658 0.750000
v 0.906005 0.955174 0.832247
v 0.895478 0.932926 0.895478
v 0.831128 0.750000 0.993303
v 0.906436 0.750000 0.963658
v 0.750000 0.831128 0.993303
v 0.834565 0.834149 0.984898
v 0.905798 0.832020 0.955374
v 0.750000 0.906436 0.963658
v 0.832247 0.906005 0.955174
v 0.895478 0.895478 0.932926
v 1.000000 -0.750000 0.750000
v 0.750000 -0.750000 1.000000
v 0.750000 -1.000000 0.750000
v 0.993303 -0.750000 0.831128
v 0.963658 -0.750000 0.906436
v 0.993303 -0.831128 0.750000
v 0.984899 -0.834149 0.834565
v 0.955374 -0.832020 0.905798
v 0.963658 -0.906436 0.750000
v 0.955174 -0.906005 0.832247
v 0.932926 -0.895478 0.895478
v 0.750000 -0.831128 0.993303
v 0.750000 -0.906436 0.963658
v 0.831128 -0.750000 0.993303
v 0.834149 -0.834565 0.984899
v 0.832020 -0.905798 0.955374
v 0.906436 -0.750000 0.963658
v 0.906005 -0.832247 0.955174
v 0.895478 -0.895478 0.932926
v 0.831128 -0.993303 0.750000
v 0.906436 -0.963658 0.750000
v 0.750000 -0.993303 0.831128
v 0.834565 -0.984898 0.834149
v 0.905798 -0.955374 0.832020
v 0.750000 -0.963658 0.906436
v 0.832247 -0.955174 0.906005
v 0.895478 -0.932926 0.895478
v -0.750000 0.750000 -1.000000
v -1.000000 0.750000 -0.750000
v -0.750000 1.000000 -0.750000
v -0.831128 0.750000 -0.993303
v -0.906436 0.750000 -0.963658
v -0.750000 0.831128 -0.993303
v -0.834565 0.834149 -0.984899
v -0.905798 0.832020 -0.955374
v -0.750000 0.906436 -0.963658
v -0.832247 0.906005 -0.955174
v -0.895478 0.895478 -0.932926
v -0.993303 0.831128 -0.750000
v -0.963658 0.906436 -0.750000
v -0.993303 0.750000 -0.831128
v -0.984899 0.834565 -0.834149
v -0.955374 0.905798 -0.832020
v -0.963658 0.750000 -0.906436
v -0.955174 0.832247 -0.906005
v -0.932926 0.895478 -0.895478
v -0.750000 0.993303 -0.831128
v -0.750000 0.963658 -0.906436
v -0.831128 0.993303 -0.750000
v -0.834149 0.984898 -0.834565
v -0.832020 0.955374 -0.905798
v -0.906436 0.963658 -0.750000
v -0.906005 0.955174 -0.832247
v -0.895478 0.932926 -0.895478
v -1.000000 -0.750000 -0.750000
v -0.750000 -0.750000 -1.000000
v -0.750000 -1.000000 -0.750000
v -0.993303 -0.750000 -0.831128
v -0.963658 -0.750000 -0.906436
v -0.993303 -0.831128 -0.750000
v -0.984899 -0.834149 -0.834565
v -0.955374 -0.832020 -0.905798
v -0.963658 -0.906436 -0.750000
v -0.955174 -0.906005 -0.832247
v -0.932926 -0.895478 -0.895478
v -0.750000 -0.831128 -0.993303
v -0.750000 -0.906436 -0.963658
v -0.831128 -0.750000 -0.993303
v -0.834149 -0.834565 -0.984899
v -0.832020 -0.905798 -0.955374
v -0.906436 -0.750000 -0.963658
v -0.906005 -0.832247 -0.955174
v -0.895478 -0.895478 -0.932926
v -0.831128 -0.993303 -0.750000
v -0.906436 -0.963658 -0.750000
v -0.750000 -0.993303 -0.831128
v -0.834565 -0.984898 -0.834149
v -0.905798 -0.955374 -0.832020
v -0.750000 -0.963658 -0.906436
v -0.832247 -0.955174 -0.906005
v -0.895478 -0.932926 -0.895478
v -1.000000 0.750000 0.750000
v -0.750000 0.750000 1.000000
v -0.750000 1.000000 0.750000
v -0.993303 0.750000 0.831128
v -0.963658 0.750000 0.906436
v -0.993303 0.831128 0.750000
v -0.984899 0.834149 0.834565
v -0.955374 0.832020 0.905798
v -0.963658 0.906436 0.750000
v -0.955174 0.906005 0.832247
v -0.932926 0.895478 0.895478
v -0.750000 0.831128 0.993303
v -0.750000 0.906436 0.963658
v -0.831128 0.750000 0.993303
v -0.834149 0.834565 0.984899
v -0.832020 0.905798 0.955374
v -0.906436 0.750000 0.963658
v -0.906005 0.832247 0.955174
v -0.895478 0.895478 0.932926
v -0.831128 0.993303 0.750000
v -0.906436 0.963658 0.750000
v -0.750000 0.993303 0.831128
v -0.834565 0.984898 0.834149
v -0.905798 0.955374 0.832020
v -0.750000 0.963658 0.906436
v -0.832247 0.955174 0.906005
v -0.895478 0.932926 0.895478
v -0.750000 -1.000000 0.750000
v -0.750000 -0.750000 1.000000
v -1.000000 -0.750000 0.750000
v -0.750000 -0.993303 0.831128
v -0.750000 -0.963658 0.906436
v -0.831128 -0.993303 0.750000
v -0.834149 -0.984899 0.834565
v -0.832020 -0.955374 0.905798
v -0.906436 -0.963658 0.750000
v -0.906005 -0.955174 0.832247
v -0.895478 -0.932926 0.895478
v -0.831128 -0.750000 0.993303
v -0.906436 -0.750000 0.963658
v -0.750000 -0.831128 0.993303
v -0.834565 -0.834149 0.984899
v -0.905798 -0.832020 0.955374
v -0.750000 -0.906436 0.963658
v -0.832247 -0.906005 0.955174
v -0.895478 -0.895478 0.932926
v -0.993303 -0.831128 0.750000
v -0.963658 -0.906436 0.750000
v -0.993303 -0.750000 0.831128
v -0.984898 -0.834565 0.834149
v -0.955374 -0.905798 0.832020
v -0.963658 -0.750000 0.906436
v -0.955174 -0.832247 0.906005
v -0.932926 -0.895478 0.895478
vn 0.0888 0.0888 -0.9921
vn 0.0864 0.3741 -0.9234
vn 0.0766 0.7049 -0.7051
vn 0.3739 0.0877 -0.9233
vn 0.3645 0.3643 -0.8570
vn 0.3436 0.6636 -0.6645
vn 0.0888 0.9921 -0.0888
vn 0.3741 0.9234 -0.0864
vn 0.7049 0.7051 -0.0766
vn 0.0877 0.9233 -0.3739
vn 0.3643 0.8570 -0.3645
vn 0.6636 0.6645 -0.3436
vn 0.9921 0.0888 -0.0888
vn 0.9234 0.0864 -0.3741
vn 0.7051 0.0766 -0.7049
vn 0.9233 0.3739 -0.0877
vn 0.8570 0.3645 -0.3643
vn 0.6645 0.3436 -0.6636
vn 0.5774 0.5774 -0.5774
vn 0.0888 -0.9921 -0.0888
vn 0.0864 -0.9234 -0.3741
vn 0.0766 -0.7051 -0.7049
vn 0.3739 -0.9233 -0.0877
vn 0.3645 -0.8570 -0.3643
vn 0.3436 -0.6645 -0.6636
vn 0.0888 -0.0888 -0.9921
vn 0.3741 -0.0864 -0.9234
vn 0.7049 -0.0766 -0.7051
vn 0.0877 -0.3739 -0.9233
vn 0.3643 -0.3645 -0.8570
vn 0.6636 -0.3436 -0.6645
vn 0.9921 -0.0888 -0.0888
vn 0.9234 -0.3741 -0.0864
vn 0.7051 -0.7049 -0.0766
vn 0.9233 -0.0877 -0.3739
vn 0.8570 -0.3643 -0.3645
vn 0.6645 -0.6636 -0.3436
vn 0.5774 -0.5774 -0.5774
vn 0.9921 0.0888 0.0888
vn 0.9234 0.3741 0.0864
vn 0.7051 0.7049 0.0766
vn 0.9233 0.0877 0.3739
vn 0.8570 0.3643 0.3645
vn 0.6645 0.6636 0.3436
vn 0.0888 0.9921 0.0888
vn 0.0864 0.9234 0.3741
vn 0.0766 0.7051 0.7049
vn 0.3739 0.9233 0.0877
vn 0.3645 0.8570 0.3643
vn 0.3436 0.6645 0.6636
vn 0.0888 0.0888 0.9921
vn 0.3741 0.0864 0.9234
vn 0.7049 0.0766 0.7051
vn 0.0877 0.3739 0.9233
vn 0.3643 0.3645 0.8570
vn 0.6636 0.3436 0.6645
vn 0.5774 0.5774 0.5774
vn 0.9921 -0.0888 0.0888
vn 0.9234 -0.0864 0.3741
vn 0.7051 -0.0766 0.7049
vn 0.9233 -0.3739 0.0877
vn 0.8570 -0.3645 0.3643
vn 0.6645 -0.3436 0.6636
vn 0.0888 -0.0888 0.9921
vn 0.0864 -0.3741 0.9234
vn 0.0766 -0.7049 0.7051
vn 0.3739 -0.0877 0.9233
vn 0.3645 -0.3643 0.8570
vn 0.3436 -0.6636 0.6645
vn 0.0888 -0.9921 0.0888
vn 0.3741 -0.9234 0.0864
vn 0.7049 -0.7051 0.0766
vn 0.0877 -0.9233 0.3739
vn 0.3643 -0.8570 0.3645
vn 0.6636 -0.6645 0.3436
vn 0.5774 -0.5774 0.5774
vn -0.0888 0.0888 -0.9921
vn -0.3741 0.0864 -0.9234
vn -0.7049 0.0766 -0.7051
vn -0.0877 0.3739 -0.9233
vn -0.3643 0.3645 -0.8570
vn -0.6636 0.3436 -0.6645
vn -0.9921 0.0888 -0.0888
vn -0.9234 0.3741 -0.0864
vn -0.7051 0.7049 -0.0766
vn -0.9233 0.0877 -0.3739
vn -0.8570 0.3643 -0.3645
vn -0.6645 0.6636 -0.3436
vn -0.0888 0.9921 -0.0888
vn -0.0864 0.9234 -0.3741
vn -0.0766 0.7051 -0.7049
vn -0.3739 0.9233 -0.0877
vn -0.3645 0.8570 -0.3643
vn -0.3436 0.6645 -0.6636
vn -0.5774 0.5774 -0.5774
vn -0.9921 -0.0888 -0.0888
vn -0.9234 -0.0864 -0.3741
vn -0.7051 -0.0766 -0.7049
vn -0.9233 -0.3739 -0.0877
vn -0.8570 -0.3645 -0.3643
vn -0.6645 -0.3436 -0.6636
vn -0.0888 -0.0888 -0.9921
vn -0.0864 -0.3741 -0.9234
vn -0.0766 -0.7049 -0.7051
vn -0.3739 -0.0877 -0.9233
vn -0.3645 -0.3643 -0.8570
vn -0.3436 -0.6636 -0.6645
vn -0.0888 -0.9921 -0.0888
vn -0.3741 -0.9234 -0.0864
vn -0.7049 -0.7051 -0.0766
vn -0.0877 -0.9233 -0.3739
vn -0.3643 -0.8570 -0.3645
vn -0.6636 -0.6645 -0.3436
vn -0.5774 -0.5774 -0.5774
vn -0.9921 0.0888 0.0888
vn -0.9234 0.0864 0.3741
vn -0.7051 0.0766 0.7049
vn -0.9233 0.3739 0.0877
vn -0.8570 0.3645 0.3643
vn -0.6645 0.3436 0.6636
vn -0.0888 0.0888 0.9921
vn -0.0864 0.3741 0.9234
vn -0.0766 0.7049 0.7051
vn -0.3739 0.0877 0.9233
vn -0.3645 0.3643 0.8570
vn -0.3436 0.6636 0.6645
vn -0.0888 0.9921 0.0888
vn -0.3741 0.9234 0.0864
vn -0.7049 0.7051 0.0766
vn -0.0877 0.9233 0.3739
vn -0.3643 0.8570 0.3645
vn -0.6636 0.6645 0.3436
vn -0.5774 0.5774 0.5774
vn -0.0888 -0.9921 0.0888
vn -0.0864 -0.9234 0.3741
vn -0.0766 -0.7051 0.7049
vn -0.3739 -0.9233 0.0877
vn -0.3645 -0.8570 0.3643
vn -0.3436 -0.6645 0.6636
vn -0.0888 -0.0888 0.9921
vn -0.3741 -0.0864 0.9234
vn -0.7049 -0.0766 0.7051
vn -0.0877 -0.3739 0.9233
vn -0.3643 -0.3645 0.8570
vn -0.6636 -0.3436 0.6645
vn -0.9921 -0.0888 0.0888
vn -0.9234 -0.3741 0.0864
vn -0.7051 -0.7049 0.0766
vn -0.9233 -0.0877 0.3739
vn -0.8570 -0.3643 0.3645
vn -0.6645 -0.6636 0.3436
vn -0.5774 -0.5774 0.5774
vn -0.0823 -0.9966 -0.0000
vn -0.3663 -0.9305 -0.0000
vn -0.7071 -0.7071 -0.0000
vn -0.9305 -0.3663 -0.0000
vn -0.9966 -0.0823 -0.0000
vn -0.0000 -0.9966 -0.0823
vn -0.0000 -0.9305 -0.3663
vn -0.0000 -0.7071 -0.7071
vn -0.0000 -0.3663 -0.9305
vn -0.0000 -0.0823 -0.9966
vn 0.9966 -0.0000 -0.0823
vn 0.9305 -0.0000 -0.3663
vn 0.7071 -0.0000 -0.7071
vn 0.3663 -0.0000 -0.9305
vn 0.0823 -0.0000 -0.9966
vn -0.0823 -0.0000 0.9966
vn -0.3663 -0.0000 0.9305
vn -0.7071 -0.0000 0.7071
vn -0.9305 -0.0000 0.3663
vn -0.9966 -0.0000 0.0823
vn 0.0823 -0.0000 0.9966
vn 0.3663 -0.0000 0.9305
vn 0.7071 -0.0000 0.7071
vn 0.9305 -0.0000 0.3663
vn 0.9966 -0.0000 0.0823
vn -0.0823 -0.0000 -0.9966
vn -0.3663 -0.0000 -0.9305
vn -0.7071 -0.0000 -0.7071
vn -0.9305 -0.0000 -0.3663
vn -0.9966 -0.0000 -0.0823
vn -0.0000 0.9966 0.0823
vn -0.0000 0.9305 0.3663
vn -0.0000 0.7071 0.7071
vn -0.0000 0.3663 0.9305
vn -0.0000 0.0823 0.9966
vn 0.0823 0.9966 -0.0000
vn 0.3663 0.9305 -0.0000
vn 0.7071 0.7071 -0.0000
vn 0.9305 0.3663 -0.0000
vn 0.9966 0.0823 -0.0000
vn -0.0000 -0.9966 0.0823
vn -0.0000 -0.9305 0.3663
vn -0.0000 -0.7071 0.7071
vn -0.0000 -0.3663 0.9305
vn -0.0000 -0.0823 0.9966
vn -0.0823 0.9966 -0.0000
vn -0.3663 0.9305 -0.0000
vn -0.7071 0.7071 -0.0000
vn -0.9305 0.3663 -0.0000
vn -0.9966 0.0823 -0.0000
vn -0.0000 0.9966 -0.0823
vn -0.0000 0.9305 -0.3663
vn -0.0000 0.7071 -0.7071
vn -0.0000 0.3663 -0.9305
vn -0.0000 0.0823 -0.9966
vn 0.0823 -0.9966 -0.0000
vn 0.3663 -0.9305 -0.0000
vn 0.7071 -0.7071 -0.0000
vn 0.9305 -0.3663 -0.0000
vn 0.9966 -0.0823 -0.0000
vn -0.0000 -0.0000 -1.0000
vn 1.0000 -0.0000 -0.0000
vn -0.0000 1.0000 -0.0000
vn -0.0000 -1.0000 -0.0000
vn -0.0000 -0.0000 1.0000
vn -1.0000 -0.0000 -0.0000
vt 0.593750 0.468750
vt 0.603891 0.468750
vt 0.604321 0.479269
vt 0.593750 0.478891
vt 0.613304 0.468750
vt 0.613225 0.479003
vt 0.640625 0.484375
vt 0.635485 0.489515
vt 0.604031 0.488251
vt 0.593750 0.488304
vt 0.611935 0.486935
vt 0.631533 0.493467
vt 0.656250 0.531250
vt 0.646109 0.531250
vt 0.645679 0.520731
vt 0.656250 0.521109
vt 0.636696 0.531250
vt 0.636775 0.520997
vt 0.613304 0.531250
vt 0.613251 0.520969
vt 0.611935 0.507703
vt 0.593750 0.531250
vt 0.593750 0.521109
vt 0.604269 0.520679
vt 0.603891 0.531250
vt 0.593750 0.511696
vt 0.604003 0.511775
vt 0.343750 0.531250
vt 0.343750 0.521109
vt 0.354269 0.520679
vt 0.353891 0.531250
vt 0.343750 0.511696
vt 0.354003 0.511775
vt 0.359375 0.484375
vt 0.364515 0.489515
vt 0.363251 0.520969
vt 0.363304 0.531250
vt 0.361935 0.513065
vt 0.368467 0.493467
vt 0.406250 0.468750
vt 0.406250 0.478891
vt 0.395731 0.479321
vt 0.396109 0.468750
vt 0.406250 0.488304
vt 0.395997 0.488225
vt 0.406250 0.511696
vt 0.395969 0.511749
vt 0.382703 0.513065
vt 0.406250 0.531250
vt 0.396109 0.531250
vt 0.395679 0.520731
vt 0.406250 0.521109
vt 0.386696 0.531250
vt 0.386775 0.520997
vt 0.593750 0.718750
vt 0.603891 0.718750
vt 0.604321 0.729269
vt 0.593750 0.728891
vt 0.613304 0.718750
vt 0.613225 0.729003
vt 0.636696 0.718750
vt 0.636749 0.729031
vt 0.604031 0.738251
vt 0.593750 0.738304
vt 0.611935 0.742297
vt 0.631533 0.756533
vt 0.656250 0.718750
vt 0.656250 0.728891
vt 0.645731 0.729321
vt 0.646109 0.718750
vt 0.640625 0.765625
vt 0.635499 0.760499
vt 0.613304 0.781250
vt 0.613251 0.770969
vt 0.611935 0.763065
vt 0.593750 0.781250
vt 0.593750 0.771109
vt 0.604269 0.770679
vt 0.603891 0.781250
vt 0.593750 0.761696
vt 0.604003 0.761775
vt 0.406250 0.718750
vt 0.406250 0.728891
vt 0.395731 0.729321
vt 0.396109 0.718750
vt 0.406250 0.738304
vt 0.395997 0.738225
vt 0.406250 0.761696
vt 0.395969 0.761749
vt 0.386749 0.729031
vt 0.386696 0.718750
vt 0.382703 0.736935
vt 0.368467 0.756533
vt 0.406250 0.781250
vt 0.396109 0.781250
vt 0.395679 0.770731
vt 0.406250 0.771109
vt 0.359375 0.765625
vt 0.364501 0.760499
vt 0.343750 0.738304
vt 0.354031 0.738251
vt 0.361935 0.736935
vt 0.343750 0.718750
vt 0.353891 0.718750
vt 0.354321 0.729269
vt 0.343750 0.728891
vt 0.363304 0.718750
vt 0.363225 0.729003
vt 0.593750 0.281250
vt 0.593750 0.271109
vt 0.604269 0.270679
vt 0.603891 0.281250
vt 0.593750 0.261696
vt 0.604003 0.261775
vt 0.593750 0.238304
vt 0.604031 0.238251
vt 0.613251 0.270969
vt 0.613304 0.281250
vt 0.611935 0.257703
vt 0.611935 0.236935
vt 0.593750 0.218750
vt 0.603891 0.218750
vt 0.604321 0.229269
vt 0.593750 0.228891
vt 0.613304 0.218750
vt 0.613225 0.229003
vt 0.625000 0.218750
vt 0.625000 0.229031
vt 0.625000 0.241290
vt 0.843750 0.531250
vt 0.843750 0.521109
vt 0.854269 0.520679
vt 0.853891 0.531250
vt 0.843750 0.500000
vt 0.854003 0.500000
vt 0.625000 0.281250
vt 0.625000 0.270997
vt 0.875000 0.520969
vt 0.875000 0.531250
vt 0.875000 0.513065
vt 0.406250 0.218750
vt 0.406250 0.228891
vt 0.395731 0.229321
vt 0.396109 0.218750
vt 0.406250 0.238304
vt 0.395997 0.238225
vt 0.406250 0.261696
vt 0.395969 0.261749
vt 0.375000 0.229031
vt 0.375000 0.218750
vt 0.375000 0.236935
vt 0.375000 0.263065
vt 0.406250 0.281250
vt 0.396109 0.281250
vt 0.395679 0.270731
vt 0.406250 0.271109
vt 0.375000 0.281250
vt 0.375000 0.270997
vt 0.156250 0.500000
vt 0.156250 0.511696
vt 0.145969 0.511749
vt 0.145997 0.500000
vt 0.138065 0.513065
vt 0.138065 0.500000
vt 0.156250 0.531250
vt 0.146109 0.531250
vt 0.145679 0.520731
vt 0.156250 0.521109
vt 0.136696 0.531250
vt 0.136775 0.520997
vt 0.125000 0.531250
vt 0.125000 0.520969
vt 0.125000 0.513065
vt 0.593750 0.031250
vt 0.593750 0.021109
vt 0.604269 0.020679
vt 0.603891 0.031250
vt 0.593750 0.011696
vt 0.604003 0.011775
vt 0.593750 0.000000
vt 0.604031 0.000000
vt 0.613251 0.020969
vt 0.613304 0.031250
vt 0.611935 0.013065
vt 0.611935 0.000000
vt 0.593750 0.968750
vt 0.603891 0.968750
vt 0.604321 0.979269
vt 0.593750 0.978891
vt 0.613304 0.968750
vt 0.613225 0.979003
vt 0.625000 0.968750
vt 0.625000 0.979031
vt 0.604031 1.000000
vt 0.593750 1.000000
vt 0.611935 1.000000
vt 0.625000 1.000000
vt 0.843750 0.718750
vt 0.853891 0.718750
vt 0.854321 0.729269
vt 0.843750 0.728891
vt 0.875000 0.718750
vt 0.875000 0.729003
vt 0.625000 0.031250
vt 0.625000 0.020997
vt 0.854031 0.750000
vt 0.843750 0.750000
vt 0.875000 0.736935
vt 0.625000 0.013065
vt 0.156250 0.718750
vt 0.156250 0.728891
vt 0.145731 0.729321
vt 0.146109 0.718750
vt 0.156250 0.738304
vt 0.145997 0.738225
vt 0.156250 0.750000
vt 0.145969 0.750000
vt 0.136749 0.729031
vt 0.136696 0.718750
vt 0.138065 0.736935
vt 0.138065 0.750000
vt 0.406250 0.968750
vt 0.406250 0.978891
vt 0.395731 0.979321
vt 0.396109 0.968750
vt 0.406250 1.000000
vt 0.395997 1.000000
vt 0.406250 0.000000
vt 0.406250 0.011696
vt 0.395969 0.011749
vt 0.395997 0.000000
vt 0.375000 0.979031
vt 0.375000 0.968750
vt 0.375000 0.986935
vt 0.375000 0.013065
vt 0.375000 0.000000
vt 0.406250 0.031250
vt 0.396109 0.031250
vt 0.395679 0.020731
vt 0.406250 0.021109
vt 0.375000 0.031250
vt 0.375000 0.020997
vt 0.125000 0.718750
vt 0.125000 0.729003
vt 0.125000 0.736935
s 0
usemtl Material
f 1/1/1 4/2/1 7/3/1 6/4/1
f 4/2/2 5/5/2 8/6/2 7/3/2
f 5/5/3 17/7/3 18/8/3 8/6/3
f 6/4/4 7/3/4 10/9/4 9/10/4
f 7/3/5 8/6/5 11/11/5 10/9/5
f 8/6/6 18/8/6 19/12/6 11/11/6
f 2/13/7 12/14/7 15/15/7 14/16/7
f 12/14/8 13/17/8 16/18/8 15/15/8
f 13/17/9 25/19/9 26/20/9 16/18/9
f 14/16/10 15/15/10 18/8/10 17/7/10
f 15/15/11 16/18/11 19/12/11 18/8/11
f 16/18/12 26/20/12 27/21/12 19/12/12
f 3/22/13 20/23/13 23/24/13 22/25/13
f 20/23/14 21/26/14 24/27/14 23/24/14
f 21/26/15 9/10/15 10/9/15 24/27/15
f 22/25/16 23/24/16 26/20/16 25/19/16
f 23/24/17 24/27/17 27/21/17 26/20/17
f 24/27/18 10/9/18 11/11/18 27/21/18
f 11/11/19 19/12/19 27/21/19
f 28/28/20 31/29/20 34/30/20 33/31/20
f 31/29/21 32/32/21 35/33/21 34/30/21
f 32/32/22 44/34/22 45/35/22 35/33/22
f 33/31/23 34/30/23 37/36/23 36/37/23
f 34/30/24 35/33/24 38/38/24 37/36/24
f 35/33/25 45/35/25 46/39/25 38/38/25
f 29/40/26 39/41/26 42/42/26 41/43/26
f 39/41/27 40/44/27 43/45/27 42/42/27
f 40/44/28 52/46/28 53/47/28 43/45/28
f 41/43/29 42/42/29 45/35/29 44/34/29
f 42/42/30 43/45/30 46/39/30 45/35/30
f 43/45/31 53/47/31 54/48/31 46/39/31
f 30/49/32 47/50/32 50/51/32 49/52/32
f 47/50/33 48/53/33 51/54/33 50/51/33
f 48/53/34 36/37/34 37/36/34 51/54/34
f 49/52/35 50/51/35 53/47/35 52/46/35
f 50/51/36 51/54/36 54/48/36 53/47/36
f 51/54/37 37/36/37 38/38/37 54/48/37
f 38/38/38 46/39/38 54/48/38
f 55/55/39 58/56/39 61/57/39 60/58/39
f 58/56/40 59/59/40 62/60/40 61/57/40
f 59/59/41 71/61/41 72/62/41 62/60/41
f 60/58/42 61/57/42 64/63/42 63/64/42
f 61/57/43 62/60/43 65/65/43 64/63/43
f 62/60/44 72/62/44 73/66/44 65/65/44
f 56/67/45 66/68/45 69/69/45 68/70/45
f 66/68/46 67/71/46 70/72/46 69/69/46
f 67/71/47 79/73/47 80/74/47 70/72/47
f 68/70/48 69/69/48 72/62/48 71/61/48
f 69/69/49 70/72/49 73/66/49 72/62/49
f 70/72/50 80/74/50 81/75/50 73/66/50
f 57/76/51 74/77/51 77/78/51 76/79/51
f 74/77/52 75/80/52 78/81/52 77/78/52
f 75/80/53 63/64/53 64/63/53 78/81/53
f 76/79/54 77/78/54 80/74/54 79/73/54
f 77/78/55 78/81/55 81/75/55 80/74/55
f 78/81/56 64/63/56 65/65/56 81/75/56
f 65/65/57 73/66/57 81/75/57
f 82/82/58 85/83/58 88/84/58 87/85/58
f 85/83/59 86/86/59 89/87/59 88/84/59
f 86/86/60 98/88/60 99/89/60 89/87/60
f 87/85/61 88/84/61 91/90/61 90/91/61
f 88/84/62 89/87/62 92/92/62 91/90/62
f 89/87/63 99/89/63 100/93/63 92/92/63
f 83/94/64 93/95/64 96/96/64 95/97/64
f 93/95/65 94/98/65 97/99/65 96/96/65
f 94/98/66 106/100/66 107/101/66 97/99/66
f 95/97/67 96/96/67 99/89/67 98/88/67
f 96/96/68 97/99/68 100/93/68 99/89/68
f 97/99/69 107/101/69 108/102/69 100/93/69
f 84/103/70 101/104/70 104/105/70 103/106/70
f 101/104/71 102/107/71 105/108/71 104/105/71
f 102/107/72 90/91/72 91/90/72 105/108/72
f 103/106/73 104/105/73 107/101/73 106/100/73
f 104/105/74 105/108/74 108/102/74 107/101/74
f 105/108/75 91/90/75 92/92/75 108/102/75
f 92/92/76 100/93/76 108/102/76
f 109/109/77 112/110/77 115/111/77 114/112/77
f 112/110/78 113/113/78 116/114/78 115/111/78
f 113/113/79 125/115/79 126/116/79 116/114/79
f 114/112/80 115/111/80 118/117/80 117/118/80
f 115/111/81 116/114/81 119/119/81 118/117/81
f 116/114/82 126/116/82 127/120/82 119/119/82
f 110/121/83 120/122/83 123/123/83 122/124/83
f 120/122/84 121/125/84 124/126/84 123/123/84
f 121/125/85 133/127/85 134/128/85 124/126/85
f 122/124/86 123/123/86 126/116/86 125/115/86
f 123/123/87 124/126/87 127/120/87 126/116/87
f 124/126/88 134/128/88 135/129/88 127/120/88
f 111/130/89 128/131/89 131/132/89 130/133/89
f 128/131/90 129/134/90 132/135/90 131/132/90
f 129/136/91 117/118/91 118/117/91 132/137/91
f 130/133/92 131/132/92 134/138/92 133/139/92
f 131/132/93 132/135/93 135/140/93 134/138/93
f 132/137/94 118/117/94 119/119/94 135/129/94
f 119/119/95 127/120/95 135/129/95
f 136/141/96 139/142/96 142/143/96 141/144/96
f 139/142/97 140/145/97 143/146/97 142/143/97
f 140/145/98 152/147/98 153/148/98 143/146/98
f 141/144/99 142/143/99 145/149/99 144/150/99
f 142/143/100 143/146/100 146/151/100 145/149/100
f 143/146/101 153/148/101 154/152/101 146/151/101
f 137/153/102 147/154/102 150/155/102 149/156/102
f 147/154/103 148/157/103 151/158/103 150/155/103
f 148/159/104 160/160/104 161/161/104 151/162/104
f 149/156/105 150/155/105 153/148/105 152/147/105
f 150/155/106 151/158/106 154/152/106 153/148/106
f 151/162/107 161/161/107 162/163/107 154/164/107
f 138/165/108 155/166/108 158/167/108 157/168/108
f 155/166/109 156/169/109 159/170/109 158/167/109
f 156/169/110 144/171/110 145/172/110 159/170/110
f 157/168/111 158/167/111 161/161/111 160/160/111
f 158/167/112 159/170/112 162/163/112 161/161/112
f 159/170/113 145/172/113 146/173/113 162/163/113
f 146/173/114 154/164/114 162/163/114
f 163/174/115 166/175/115 169/176/115 168/177/115
f 166/175/116 167/178/116 170/179/116 169/176/116
f 167/178/117 179/180/117 180/181/117 170/179/117
f 168/177/118 169/176/118 172/182/118 171/183/118
f 169/176/119 170/179/119 173/184/119 172/182/119
f 170/179/120 180/181/120 181/185/120 173/184/120
f 164/186/121 174/187/121 177/188/121 176/189/121
f 174/187/122 175/190/122 178/191/122 177/188/122
f 175/190/123 187/192/123 188/193/123 178/191/123
f 176/189/124 177/188/124 180/194/124 179/195/124
f 177/188/125 178/191/125 181/196/125 180/194/125
f 178/191/126 188/193/126 189/197/126 181/196/126
f 165/198/127 182/199/127 185/200/127 184/201/127
f 182/199/128 183/202/128 186/203/128 185/200/128
f 183/204/129 171/183/129 172/182/129 186/205/129
f 184/201/130 185/200/130 188/206/130 187/207/130
f 185/200/131 186/203/131 189/208/131 188/206/131
f 186/205/132 172/182/132 173/184/132 189/209/132
f 173/184/133 181/185/133 189/209/133
f 190/210/134 193/211/134 196/212/134 195/213/134
f 193/211/135 194/214/135 197/215/135 196/212/135
f 194/214/136 206/216/136 207/217/136 197/215/136
f 195/213/137 196/212/137 199/218/137 198/219/137
f 196/212/138 197/215/138 200/220/138 199/218/138
f 197/215/139 207/217/139 208/221/139 200/220/139
f 191/222/140 201/223/140 204/224/140 203/225/140
f 201/223/141 202/226/141 205/227/141 204/224/141
f 202/228/142 214/229/142 215/230/142 205/231/142
f 203/225/143 204/224/143 207/232/143 206/233/143
f 204/224/144 205/227/144 208/234/144 207/232/144
f 205/231/145 215/230/145 216/235/145 208/236/145
f 192/237/146 209/238/146 212/239/146 211/240/146
f 209/238/147 210/241/147 213/242/147 212/239/147
f 210/243/148 198/219/148 199/218/148 213/244/148
f 211/240/149 212/239/149 215/230/149 214/229/149
f 212/239/150 213/242/150 216/235/150 215/230/150
f 213/244/151 199/218/151 200/220/151 216/245/151
f 200/220/152 208/221/152 216/245/152
f 138/165/153 190/210/153 195/213/153 155/166/153
f 155/166/154 195/213/154 198/219/154 156/169/154
f 156/169/155 198/219/155 210/243/155 144/171/155
f 144/150/156 210/241/156 209/238/156 141/144/156
f 141/144/157 209/238/157 192/237/157 136/141/157
f 28/28/158 138/165/158 157/168/158 31/29/158
f 31/29/159 157/168/159 160/160/159 32/32/159
f 32/32/160 160/160/160 148/159/160 44/34/160
f 44/34/161 148/157/161 147/154/161 41/43/161
f 41/43/162 147/154/162 137/153/162 29/40/162
f 3/22/163 30/49/163 49/52/163 20/23/163
f 20/23/164 49/52/164 52/46/164 21/26/164
f 21/26/165 52/46/165 40/44/165 9/10/165
f 9/10/166 40/44/166 39/41/166 6/4/166
f 6/4/167 39/41/167 29/40/167 1/1/167
f 191/222/168 164/186/168 176/189/168 201/223/168
f 201/223/169 176/189/169 179/195/169 202/226/169
f 202/228/170 179/180/170 167/178/170 214/229/170
f 214/229/171 167/178/171 166/175/171 211/240/171
f 211/240/172 166/175/172 163/174/172 192/237/172
f 57/76/173 83/94/173 95/97/173 74/77/173
f 74/77/174 95/97/174 98/88/174 75/80/174
f 75/80/175 98/88/175 86/86/175 63/64/175
f 63/64/176 86/86/176 85/83/176 60/58/176
f 60/58/177 85/83/177 82/82/177 55/55/177
f 109/109/178 137/153/178 149/156/178 112/110/178
f 112/110/179 149/156/179 152/147/179 113/113/179
f 113/113/180 152/147/180 140/145/180 125/115/180
f 125/115/181 140/145/181 139/142/181 122/124/181
f 122/124/182 139/142/182 136/141/182 110/121/182
f 56/67/183 165/198/183 184/201/183 66/68/183
f 66/68/184 184/201/184 187/207/184 67/71/184
f 67/71/185 187/192/185 175/190/185 79/73/185
f 79/73/186 175/190/186 174/187/186 76/79/186
f 76/79/187 174/187/187 164/186/187 57/76/187
f 2/13/188 56/67/188 68/70/188 12/14/188
f 12/14/189 68/70/189 71/61/189 13/17/189
f 13/17/190 71/61/190 59/59/190 25/19/190
f 25/19/191 59/59/191 58/56/191 22/25/191
f 22/25/192 58/56/192 55/55/192 3/22/192
f 190/210/193 84/103/193 103/106/193 193/211/193
f 193/211/194 103/106/194 106/100/194 194/214/194
f 194/214/195 106/100/195 94/98/195 206/216/195
f 206/233/196 94/98/196 93/95/196 203/225/196
f 203/225/197 93/95/197 83/94/197 191/222/197
f 165/198/198 111/130/198 130/133/198 182/199/198
f 182/199/199 130/133/199 133/139/199 183/202/199
f 183/204/200 133/127/200 121/125/200 171/183/200
f 171/183/201 121/125/201 120/122/201 168/177/201
f 168/177/202 120/122/202 110/121/202 163/174/202
f 111/130/203 2/13/203 14/16/203 128/131/203
f 128/131/204 14/16/204 17/7/204 129/134/204
f 129/136/205 17/7/205 5/5/205 117/118/205
f 117/118/206 5/5/206 4/2/206 114/112/206
f 114/112/207 4/2/207 1/1/207 109/109/207
f 84/103/208 28/28/208 33/31/208 101/104/208
f 101/104/209 33/31/209 36/37/209 102/107/209
f 102/107/210 36/37/210 48/53/210 90/91/210
f 90/91/211 48/53/211 47/50/211 87/85/211
f 87/85/212 47/50/212 30/49/212 82/82/212
f 137/153/213 109/109/213 1/1/213 29/40/213
f 30/49/214 3/22/214 55/55/214 82/82/214
f 2/13/215 111/130/215 165/198/215 56/67/215
f 138/165/216 28/28/216 84/103/216 190/210/216
f 83/94/217 57/76/217 164/186/217 191/222/217
f 192/237/218 163/174/218 110/121/218 136/141/218
